<svg width="48" height="48" viewBox="0 0 48 48" fill="none" xmlns="http://www.w3.org/2000/svg">
  <rect width="48" height="48" rx="11" fill="#0F1E2E"/>
  <defs>
    <linearGradient id="d" x1="8" y1="8" x2="32" y2="42" gradientUnits="userSpaceOnUse"><stop stop-color="#22BCE6"/><stop offset="1" stop-color="#1295D8"/></linearGradient>
    <linearGradient id="l" x1="22" y1="12" x2="40" y2="40" gradientUnits="userSpaceOnUse"><stop stop-color="#5CC85F"/><stop offset="1" stop-color="#2FA84F"/></linearGradient>
  </defs>
  <path d="M19 7C19 7 8 18.5 8 27c0 6.3 4.8 11 11 11 1.8 0 3.5-.5 5-1.3C19.7 33.4 16.6 28.6 16.6 23.1 16.6 17.1 19 11.5 19 7Z" fill="url(#d)"/>
  <path d="M40 11.6c-8 .5-14.5 4.3-16.5 11.8-.8 3.2-.4 6.7 1.3 9.7 5.5-1 11.2-4.5 13.6-10.9 1.2-3.3 1.5-6.8 1.6-10.6Z" fill="url(#l)"/>
</svg>
