<svg width="120" height="120" viewBox="0 0 120 120" fill="none" xmlns="http://www.w3.org/2000/svg">
  <rect width="120" height="120" rx="26" fill="#0F1E2E"/>
  <defs>
    <linearGradient id="fg" x1="22" y1="22" x2="98" y2="108" gradientUnits="userSpaceOnUse"><stop offset="0" stop-color="#6CC24A"/><stop offset="1" stop-color="#2E9B3E"/></linearGradient>
    <linearGradient id="fb" x1="42" y1="30" x2="80" y2="88" gradientUnits="userSpaceOnUse"><stop offset="0" stop-color="#41B6EA"/><stop offset="1" stop-color="#1C77C0"/></linearGradient>
    <linearGradient id="fd" x1="48" y1="12" x2="72" y2="56" gradientUnits="userSpaceOnUse"><stop offset="0" stop-color="#5CC3F1"/><stop offset="1" stop-color="#1A84CE"/></linearGradient>
  </defs>
  <g transform="translate(0,4)">
    <path d="M83.2 35.5 A34 34 0 1 1 36.8 35.5" fill="none" stroke="url(#fg)" stroke-width="12.5" stroke-linecap="round"/>
    <path d="M66 39 C 84 45 86 71 67 83 C 58 88 47 87 41.5 81.5 C 54 82 61 73 61 61 C 61 51 60 44 66 39 Z" fill="url(#fb)"/>
    <path d="M60 13 C 67.5 25.5 75 33 75 41.2 A 15 15 0 1 1 45 41.2 C 45 33 52.5 25.5 60 13 Z" fill="url(#fd)"/>
  </g>
</svg>
